<?xml version="1.0" encoding="utf-8"?>
<!-- Generator: Adobe Illustrator 18.0.0, SVG Export Plug-In . SVG Version: 6.00 Build 0)  -->
<!DOCTYPE svg PUBLIC "-//W3C//DTD SVG 1.1//EN" "http://www.w3.org/Graphics/SVG/1.1/DTD/svg11.dtd">
<svg version="1.1" id="Слой_1" xmlns="http://www.w3.org/2000/svg" xmlns:xlink="http://www.w3.org/1999/xlink" x="0px" y="0px"
	 width="177.6px" height="77.6px" viewBox="0 0 177.6 77.6" enable-background="new 0 0 177.6 77.6" xml:space="preserve">
<path fill-rule="evenodd" clip-rule="evenodd" fill="#FFFFFF" d="M52.7,9.3h8.8c5.4,0,10.3,1.9,10.3,8c0,6.4-5.5,8.1-9.7,8.1h-5.9
	v13.1h-3.5V9.3z M56.1,22.2h5.9c3.5,0,5.9-1.6,5.9-4.8c0-3.3-2.4-4.8-5.9-4.8h-5.9V22.2z"/>
<path fill-rule="evenodd" clip-rule="evenodd" fill="#FFFFFF" d="M75.8,12.1c1.1,0,2,0.9,2,2c0,1.2-0.8,2-2,2c-1.2,0-2-0.8-2-2
	C73.8,13,74.7,12.1,75.8,12.1"/>
<rect x="74.3" y="19.3" fill-rule="evenodd" clip-rule="evenodd" fill="#FFFFFF" width="3.3" height="19.3"/>
<rect x="81" y="9.3" fill-rule="evenodd" clip-rule="evenodd" fill="#FFFFFF" width="3.3" height="29"/>
<path fill-rule="evenodd" clip-rule="evenodd" fill="#FFFFFF" d="M107.1,37.7c0,7-3.8,10.8-10.6,10.8c-3.8,0-6.8-1-9.6-3.7l2.3-2.6
	c2,2.2,4.3,3.4,7.3,3.4c5.8,0,7.4-3.7,7.4-7.8v-2.5h-0.1c-1.5,2.5-4.3,3.6-6.9,3.6c-6.1,0-10.4-4.2-10.4-9.9
	c0-6.3,4.2-10.2,10.4-10.2c2.6,0,5.6,1.2,6.9,3.8h0.1v-3.3h3.2V37.7z M96.9,35.8c4.4,0,7-3.3,7-7c0-4.2-2.8-7.1-7-7.1
	c-4.1,0-6.9,3.1-6.9,7.2C90.1,32.8,93.2,35.8,96.9,35.8z"/>
<path fill-rule="evenodd" clip-rule="evenodd" fill="#FFFFFF" d="M110.7,23.8c0-1.8-0.2-3.3-0.2-4.6h3.1c0,1,0.1,2.1,0.1,3.2h0.1
	c0.9-1.9,3.3-3.7,6.5-3.7c0.4,0,0.9,0,1.3,0.2l-0.2,3.3c-0.5-0.2-1.2-0.2-1.7-0.2c-4,0-5.7,2.8-5.7,7.2v9.4h-3.3L110.7,23.8"/>
<rect x="124.9" y="19.3" fill-rule="evenodd" clip-rule="evenodd" fill="#FFFFFF" width="3.2" height="19.3"/>
<path fill-rule="evenodd" clip-rule="evenodd" fill="#FFFFFF" d="M131.2,23.8c0-1.8-0.2-3.3-0.2-4.6h3.1c0,1,0.1,2.1,0.1,3.2h0.1
	c0.9-1.9,3.3-3.7,6.5-3.7c4.2,0,5.5,2.3,6.2,3.7c1.4-2.3,3.2-3.7,6.2-3.7c5.6,0,7.4,3.1,7.4,8.1v11.7h-3.3V27c0-2.7-1-5.3-4.7-5.3
	c-2.8,0-5,2.2-5,5.7v11.2h-3.3v-11c0-4.2-1.1-5.9-3.8-5.9c-4.2,0-6,3-6,7.4v9.4h-3.3L131.2,23.8"/>
<path fill-rule="evenodd" clip-rule="evenodd" fill="#FFFFFF" d="M164.8,33.5c1.3,1.6,2.7,2.6,5,2.6c2,0,4.3-0.9,4.3-3
	c0-2.1-2.1-2.6-4.2-3.1c-3.7-0.8-6.9-1.6-6.9-5.6c0-3.8,3.7-5.7,7.3-5.7c2.8,0,5.3,1,6.6,3.5l-2.7,1.8c-0.8-1.4-2.2-2.3-4.1-2.3
	c-1.8,0-3.8,0.9-3.8,2.7c0,1.6,2.3,2.3,4.9,2.8c3.5,0.7,6.4,1.9,6.4,5.8c0,4.4-3.9,6.1-7.8,6.1c-3.3,0-5.7-0.9-7.6-3.6L164.8,33.5"
	/>
<path fill-rule="evenodd" clip-rule="evenodd" fill="#FFFFFF" d="M126.4,12.1c1.1,0,2,0.9,2,2c0,1.2-0.8,2-2,2c-1.2,0-2-0.8-2-2
	C124.4,13,125.3,12.1,126.4,12.1"/>
<polyline fill-rule="evenodd" clip-rule="evenodd" fill="#FFFFFF" points="52.7,46.9 55,46.9 55,55.3 65.7,55.3 65.7,46.9 68,46.9 
	68,66.6 65.7,66.6 65.7,57.4 55,57.4 55,66.6 52.7,66.6 52.7,46.9 "/>
<path fill-rule="evenodd" clip-rule="evenodd" fill="#FFFFFF" d="M76.6,53.2c4.1,0,7,2.8,7,6.9s-3,6.9-7,6.9c-4.1,0-7-2.8-7-6.9
	S72.5,53.2,76.6,53.2z M76.6,64.9c2.8,0,4.7-2.1,4.7-4.9s-1.8-4.9-4.7-4.9s-4.7,2.1-4.7,4.9S73.8,64.9,76.6,64.9z"/>
<path fill-rule="evenodd" clip-rule="evenodd" fill="#FFFFFF" d="M86,63.2c0.9,1.1,1.8,1.8,3.4,1.8c1.4,0,2.9-0.6,2.9-2
	s-1.4-1.8-2.8-2.1c-2.5-0.6-4.6-1.1-4.6-3.8c0-2.5,2.5-3.9,4.9-3.9c1.9,0,3.6,0.7,4.5,2.4l-1.8,1.2c-0.6-0.9-1.5-1.6-2.8-1.6
	c-1.2,0-2.6,0.6-2.6,1.8c0,1.1,1.6,1.6,3.3,1.9c2.3,0.4,4.3,1.3,4.3,3.9c0,3-2.6,4.1-5.3,4.1c-2.2,0-3.8-0.6-5.1-2.4L86,63.2"/>
<path fill-rule="evenodd" clip-rule="evenodd" fill="#FFFFFF" d="M95.9,53.6h2.2v1.9h0c1.2-1.4,2.8-2.2,4.7-2.2
	c4.1,0,6.9,2.9,6.9,6.9c0,3.9-2.9,6.9-6.6,6.9c-2.4,0-4.3-1.2-5.1-2.6h0V73h-2.2V53.6z M102.7,64.9c2.8,0,4.7-2.1,4.7-4.9
	s-1.8-4.9-4.7-4.9s-4.7,2.1-4.7,4.9S99.9,64.9,102.7,64.9z"/>
<rect x="111.3" y="53.6" fill-rule="evenodd" clip-rule="evenodd" fill="#FFFFFF" width="2.2" height="13.1"/>
<path fill-rule="evenodd" clip-rule="evenodd" fill="#FFFFFF" d="M125.2,56.8c-0.9-1.1-2-1.6-3.3-1.6c-3,0-4.5,2.2-4.5,4.9
	c0,2.7,1.8,4.9,4.5,4.9c1.4,0,2.5-0.5,3.4-1.6l1.6,1.5c-1.3,1.5-3.1,2.1-5,2.1c-4.1,0-6.8-2.8-6.8-6.9c0-4,2.8-6.9,6.8-6.9
	c1.9,0,3.8,0.6,5.1,2.1L125.2,56.8"/>
<path fill-rule="evenodd" clip-rule="evenodd" fill="#FFFFFF" d="M139.6,64.2c-1.5,2-3.4,2.7-5.9,2.7c-4.1,0-6.7-3.1-6.7-6.9
	c0-4,2.9-6.9,6.8-6.9c3.7,0,6.2,2.5,6.2,6.8v0.7h-10.6c0.2,2.3,1.9,4.2,4.3,4.2c1.9,0,3.2-0.7,4.2-2L139.6,64.2z M137.7,58.9
	c-0.1-2.2-1.5-3.7-4-3.7c-2.4,0-4,1.5-4.3,3.7H137.7z"/>
<path fill-rule="evenodd" clip-rule="evenodd" fill="#FFFFFF" d="M142.3,63.2c0.9,1.1,1.8,1.8,3.4,1.8c1.4,0,2.9-0.6,2.9-2
	s-1.4-1.8-2.8-2.1c-2.5-0.6-4.6-1.1-4.6-3.8c0-2.5,2.5-3.9,4.9-3.9c1.9,0,3.6,0.7,4.5,2.4l-1.8,1.2c-0.6-0.9-1.5-1.6-2.8-1.6
	c-1.2,0-2.6,0.6-2.6,1.8c0,1.1,1.6,1.6,3.3,1.9c2.3,0.4,4.3,1.3,4.3,3.9c0,3-2.6,4.1-5.3,4.1c-2.2,0-3.8-0.6-5.1-2.4L142.3,63.2"/>
<path fill-rule="evenodd" clip-rule="evenodd" fill="#FFFFFF" d="M112.6,48.7c0.8,0,1.4,0.6,1.4,1.4c0,0.8-0.6,1.4-1.4,1.4
	s-1.4-0.6-1.4-1.4C111.3,49.4,111.9,48.7,112.6,48.7"/>
<path fill-rule="evenodd" clip-rule="evenodd" fill="#FFFFFF" d="M14.2,0.2C13.7,1.3-8.5,26.8,3.6,39.8c10.3,11,4.5,22-3.3,37.8
	l9-5.9c6.1-13.9,11.2-24,0.1-37C-0.2,23.2,14.1,0.4,14.2,0.2"/>
<path fill-rule="evenodd" clip-rule="evenodd" fill="#FFFFFF" d="M9.6,22.4c0-7.3,5.9-13.2,13.2-13.2c7.3,0,13.2,5.9,13.2,13.2
	c0,7.3-5.9,13.2-13.2,13.2C15.5,35.5,9.6,29.6,9.6,22.4"/>
<path fill-rule="evenodd" clip-rule="evenodd" fill="#FFFFFF" d="M31.3,0C31.8,1.1,54,26.6,41.9,39.6c-10.3,11-4.5,22,3.3,37.8
	l-9-5.9c-6.1-13.9-11.2-24-0.1-37C45.8,22.9,31.4,0.2,31.3,0"/>
</svg>
